#!OML:ASF E:\Steps\Project 1\Capture day 1\Session 2\Subject.ASF
:FULLY-SPECIFIED
:DEGREES
319
root 4.01908 17.1144 17.4542 -148.207 -2.10892 174.98
lowerback -14.3753 -3.16014 -1.96904
upperback 3.96103 -4.06684 1.51194
thorax 12.7412 -2.14272 1.75194
lowerneck -2.09083 -0.542644 -2.16464
upperneck 16.4858 0.35761 -0.293638
head 5.30343 0.355966 0.317314
rclavicle 1.27222e-014 -3.18055e-015
rhumerus -53.3836 -22.8451 -63.2184
rradius 58.5658
rwrist -10.2482
rhand -8.1555 -54.0155
rfingers 7.12502
rthumb 17.7592 276.775
lclavicle 1.27222e-014 -3.18055e-015
lhumerus -29.4367 -12.1094 81.2164
lradius 37.5889
lwrist 2.68893
lhand -22.0355 -13.4078
lfingers 7.12502
lthumb 4.37445 16.527
rfemur -44.2289 7.08202 14.748
rtibia 24.9653
rfoot -21.1387 -1.78842
rtoes -0.85247
lfemur -37.4082 -6.34992 -25.9837
ltibia 13.4078
lfoot -5.50704 -3.00894
ltoes -40.9565
320
root 4.00914 17.1207 17.4742 -147.883 -2.47931 174.731
lowerback -14.6193 -3.14808 -1.99679
upperback 3.75352 -4.04365 1.59745
thorax 12.6572 -2.13312 1.8618
lowerneck -1.84113 -0.722698 -2.47527
upperneck 16.2867 0.0726041 0.0341546
head 5.20225 0.220194 0.45533
rclavicle 2.5842e-014 -9.54166e-015
rhumerus -53.0497 -22.9788 -63.1227
rradius 58.1775
rwrist -9.8811
rhand -7.89539 -53.9366
rfingers 7.12502
rthumb 18.0095 276.877
lclavicle 2.5842e-014 -9.54166e-015
lhumerus -29.4632 -11.9587 81.4909
lradius 37.4935
lwrist 2.73682
lhand -22.1426 -12.7871
lfingers 7.12502
lthumb 4.27105 17.1498
rfemur -44.4407 6.63591 14.5334
rtibia 24.7814
rfoot -21.0498 -1.93618
rtoes -0.785031
lfemur -37.9709 -6.4395 -26.2852
ltibia 13.7948
lfoot -5.53299 -3.6473
ltoes -40.7911
321
root 3.98622 17.12 17.4793 -147.589 -2.41179 174.745
lowerback -15.1952 -2.9966 -1.79709
upperback 3.65184 -3.87727 1.67254
thorax 12.8667 -2.0402 1.85271
lowerneck -2.37942 -0.628483 -2.08865
upperneck 16.4969 0.252699 -0.429798
head 5.35716 0.296864 0.257045
rclavicle -2.26615e-014 1.59028e-015
rhumerus -52.5261 -22.8946 -63.208
rradius 57.884
rwrist -9.51557
rhand -8.48037 -55.0144
rfingers 7.12502
rthumb 17.4466 275.749
lclavicle -2.26615e-014 1.59028e-015
lhumerus -29.5754 -11.6359 81.808
lradius 37.5759
lwrist 3.00259
lhand -22.0504 -12.6143
lfingers 7.12502
lthumb 4.36007 17.3208
rfemur -44.6886 6.59258 14.4249
rtibia 24.5989
rfoot -20.7575 -1.75804
rtoes 0.153359
lfemur -38.3135 -6.56495 -26.3261
ltibia 13.8941
lfoot -5.66472 -3.61577
ltoes -41.0803
322
root 3.97204 17.1269 17.486 -147.486 -2.22191 174.897
lowerback -14.9646 -2.71433 -1.56934
upperback 3.30199 -3.53638 1.67187
thorax 12.291 -1.85816 1.8294
lowerneck -1.69418 -0.847026 -2.16911
upperneck 16.1994 -0.0470089 -0.402226
head 5.15118 0.159339 0.263007
rclavicle 1.94809e-014 7.55382e-015
rhumerus -52.6302 -22.8709 -63.1286
rradius 57.6525
rwrist -9.3399
rhand -9.47178 -56.7023
rfingers 7.12502
rthumb 16.4923 273.979
lclavicle 1.94809e-014 7.55382e-015
lhumerus -30.2816 -11.543 82.0402
lradius 37.9017
lwrist 3.32034
lhand -21.7709 -12.8834
lfingers 7.12502
lthumb 4.62997 17.046
rfemur -44.8079 6.71944 14.4584
rtibia 24.462
rfoot -20.7559 -1.53906
rtoes -0.329727
lfemur -38.4852 -6.53187 -26.1985
ltibia 13.9863
lfoot -5.8421 -3.43026
ltoes -42.2153
323
root 3.95482 17.1374 17.4667 -147.906 -1.70488 175.25
lowerback -14.9367 -2.34641 -1.31102
upperback 3.3504 -3.09516 1.66052
thorax 12.289 -1.63296 1.7847
lowerneck -2.00337 -0.885627 -1.91788
upperneck 16.4707 -0.0846811 -0.469896
head 5.28709 0.153062 0.199357
rclavicle 8.34896e-015 1.11319e-014
rhumerus -52.3731 -22.9118 -63.1527
rradius 57.3205
rwrist -9.17364
rhand -9.92839 -57.4754
rfingers 7.12502
rthumb 16.0526 273.17
lclavicle 8.34896e-015 1.11319e-014
lhumerus -30.6584 -11.2034 82.1768
lradius 38.1449
lwrist 3.58015
lhand -21.591 -13.2143
lfingers 7.12502
lthumb 4.80371 16.7113
rfemur -44.1993 7.09051 14.7063
rtibia 24.0811
rfoot -20.5504 -1.02192
rtoes -0.00286472
lfemur -37.82 -6.58079 -25.7999
ltibia 13.7184
lfoot -6.17657 -2.57995
ltoes -43.8017
324
root 3.93845 17.1546 17.4478 -148.47 -1.27871 175.398
lowerback -14.7899 -2.09869 -1.1985
upperback 3.52826 -2.78924 1.63879
thorax 12.3817 -1.48352 1.77752
lowerneck -2.02269 -1.06181 -2.26363
upperneck 16.5477 -0.330655 -0.201992
head 5.31822 0.0314481 0.327998
rclavicle -7.95139e-015 5.56597e-015
rhumerus -51.8036 -22.8958 -63.3469
rradius 57.0254
rwrist -8.90419
rhand -9.88633 -57.7228
rfingers 7.12502
rthumb 16.0931 272.925
lclavicle -7.95139e-015 5.56597e-015
lhumerus -30.7538 -10.9156 82.337
lradius 38.2197
lwrist 3.88161
lhand -21.5979 -12.9691
lfingers 7.12502
lthumb 4.79699 16.9566
rfemur -43.258 7.40386 14.7887
rtibia 23.4625
rfoot -20.2522 -0.841038
rtoes -0.509574
lfemur -36.9293 -6.74513 -25.6307
ltibia 13.4003
lfoot -6.42461 -1.86581
ltoes -44.0112
325
root 3.93316 17.1573 17.461 -148.119 -1.08822 175.392
lowerback -15.2236 -1.98274 -1.34149
upperback 3.32409 -2.60561 1.70152
thorax 12.4089 -1.40778 1.96582
lowerneck -2.38475 -0.945873 -1.74033
upperneck 16.6782 -0.139551 -0.64792
head 5.41623 0.124362 0.111857
rclavicle 9.93923e-015 1.19271e-014
rhumerus -51.3722 -22.8494 -63.4373
rradius 56.7353
rwrist -8.70004
rhand -9.68576 -58.0508
rfingers 7.12502
rthumb 16.2862 272.613
lclavicle 9.93923e-015 1.19271e-014
lhumerus -31.1446 -10.9408 82.6041
lradius 38.44
lwrist 4.40864
lhand -21.6927 -12.5441
lfingers 7.12502
lthumb 4.70555 17.3836
rfemur -43.5502 7.46204 14.6873
rtibia 23.0793
rfoot -20.0481 -0.916395
rtoes -1.55944
lfemur -37.4539 -6.68728 -25.6371
ltibia 13.5965
lfoot -6.48483 -1.85154
ltoes -42.9355
